<?xml version="1.0" encoding="utf-8"?>
<!-- Generator: Adobe Illustrator 22.0.0, SVG Export Plug-In . SVG Version: 6.00 Build 0)  -->
<svg version="1.1" id="Layer_1" xmlns="http://www.w3.org/2000/svg" xmlns:xlink="http://www.w3.org/1999/xlink" x="0px" y="0px"
	 viewBox="0 0 637.8 339.3" style="enable-background:new 0 0 637.8 339.3;" xml:space="preserve">
<style type="text/css">
	.st0{clip-path:url(#SVGID_2_);}
	.st1{fill:#3BE099;}
	.st2{fill:#2BD892;}
	.st3{fill:#2AD392;}
	.st4{fill:#23CC8F;}
	.st5{fill:#21C184;}
	.st6{fill:#FFFFFF;}
	.st7{fill:#686868;}
</style>
<g>
	<g>
		<g>
			<defs>
				<path id="SVGID_1_" d="M557.4,134.8c-23.5,0-42.5-19-42.5-42.5c0-2.8,0.3-5.2,0.8-7.9c-5-0.8-10.1-1-15.2-1c0,0-399.9,0-400,0
					c-55.2,0-99.2,44.2-99.2,99.5c0,2.3,0,153.2,0,153.2c4-52,46.2-52.7,99.2-52.7c0.1,0,0.2,0,0.2,0h399.8c55-1,99-45.3,99-100.2
					c0-20.8-6.3-40.3-17.2-56.4C575.2,131.9,566.7,134.8,557.4,134.8z"/>
			</defs>
			<clipPath id="SVGID_2_">
				<use xlink:href="#SVGID_1_"  style="overflow:visible;"/>
			</clipPath>
			<g class="st0">
				<path class="st1" d="M1366.9,35.7c0,397.6-322.3,719.9-719.9,719.9S-73,433.3-73,35.7c0-397.6,322.3-719.9,719.9-719.9
					S1366.9-361.9,1366.9,35.7z"/>
				<circle class="st2" cx="646.9" cy="35.7" r="605.8"/>
				<circle class="st3" cx="646.9" cy="35.7" r="491.7"/>
				<circle class="st4" cx="647.2" cy="35.7" r="377.5"/>
				<circle class="st4" cx="647.1" cy="35.7" r="263.4"/>
				<circle class="st5" cx="647.1" cy="35.7" r="263.4"/>
			</g>
		</g>
	</g>
	<circle class="st5" cx="596.2" cy="41.8" r="40"/>
	<g>
		<path class="st6" d="M160.4,172.2c0,3.9-0.7,7.2-2.2,9.8c-1.4,2.7-3.4,4.8-5.8,6.4c-2.4,1.6-5.3,2.8-8.5,3.6
			c-3.2,0.8-6.5,1.1-10,1.1h-8v25.1h-16.1v-66.6h24.5c3.6,0,7,0.4,10.2,1.1c3.2,0.7,5.9,1.9,8.3,3.5s4.2,3.7,5.5,6.3
			C159.7,165.1,160.4,168.3,160.4,172.2z M144.3,172.2c0-1.6-0.3-2.9-0.9-3.9c-0.6-1-1.5-1.8-2.5-2.4c-1.1-0.6-2.3-0.9-3.6-1.1
			c-1.4-0.2-2.7-0.3-4.2-0.3H126v15.7h6.8c1.5,0,2.9-0.1,4.3-0.4c1.4-0.2,2.6-0.7,3.7-1.3c1.1-0.6,2-1.5,2.6-2.5
			C144,175.1,144.3,173.8,144.3,172.2z"/>
		<path class="st6" d="M166.9,218.2v-71.1h15.7v71.1H166.9z"/>
		<path class="st6" d="M239.8,195.4c0,0.6,0,1.3,0,1.9c0,0.6,0,1.2-0.1,1.8h-34c0.1,1.3,0.5,2.5,1.2,3.6c0.7,1.1,1.5,2,2.5,2.8
			c1,0.8,2.2,1.4,3.5,1.8c1.3,0.4,2.6,0.7,4,0.7c2.4,0,4.5-0.5,6.2-1.4s3.1-2.1,4.1-3.5l10.7,6.8c-2.2,3.2-5.1,5.7-8.7,7.4
			c-3.6,1.7-7.8,2.6-12.6,2.6c-3.5,0-6.8-0.6-10-1.6c-3.1-1.1-5.9-2.7-8.2-4.8c-2.4-2.1-4.2-4.7-5.5-7.8c-1.4-3.1-2-6.6-2-10.5
			c0-3.8,0.7-7.3,2-10.4s3.1-5.7,5.4-7.9c2.3-2.2,4.9-3.8,8-5c3.1-1.2,6.4-1.8,10-1.8c3.4,0,6.6,0.6,9.5,1.7c2.9,1.2,5.4,2.8,7.4,5
			c2.1,2.2,3.7,4.9,4.8,8C239.2,187.8,239.8,191.4,239.8,195.4z M225.6,189.5c0-2.4-0.8-4.5-2.3-6.3c-1.5-1.8-3.8-2.6-6.9-2.6
			c-1.5,0-2.9,0.2-4.1,0.7c-1.3,0.5-2.4,1.1-3.3,1.9c-0.9,0.8-1.7,1.8-2.3,2.9c-0.6,1.1-0.9,2.2-0.9,3.4H225.6z"/>
		<path class="st6" d="M247.1,177.8c2.8-2.6,6-4.6,9.6-5.9c3.7-1.3,7.4-2,11.2-2c3.9,0,7.3,0.5,10,1.5s4.9,2.5,6.6,4.5
			c1.7,2,2.9,4.6,3.7,7.7c0.8,3.1,1.2,6.8,1.2,11.1v23.6h-14.1v-5h-0.3c-1.2,1.9-3,3.4-5.4,4.5c-2.4,1.1-5,1.6-7.9,1.6
			c-1.9,0-3.8-0.3-5.8-0.8c-2-0.5-3.8-1.3-5.5-2.4c-1.7-1.1-3-2.6-4.1-4.5c-1.1-1.9-1.6-4.2-1.6-7c0-3.4,0.9-6.1,2.8-8.2
			c1.8-2.1,4.2-3.7,7.1-4.8c2.9-1.1,6.2-1.9,9.7-2.3c3.6-0.4,7.1-0.6,10.4-0.6v-0.8c0-2.3-0.8-4-2.4-5.1c-1.6-1.1-3.6-1.6-6-1.6
			c-2.2,0-4.3,0.5-6.3,1.4c-2,0.9-3.8,2.1-5.2,3.4L247.1,177.8z M275.4,197.8h-2c-1.7,0-3.4,0.1-5.1,0.2c-1.7,0.2-3.3,0.5-4.6,0.9
			c-1.3,0.4-2.5,1.1-3.3,1.9c-0.9,0.8-1.3,2-1.3,3.3c0,0.9,0.2,1.6,0.6,2.3c0.4,0.6,0.9,1.1,1.6,1.5c0.6,0.4,1.3,0.6,2.2,0.8
			c0.8,0.2,1.6,0.2,2.4,0.2c3.1,0,5.5-0.9,7.2-2.6c1.7-1.7,2.5-4.1,2.5-7L275.4,197.8L275.4,197.8z"/>
		<path class="st6" d="M327.5,185.2c-1.3-1.2-2.7-2.2-4.4-3c-1.7-0.8-3.5-1.2-5.4-1.2c-1.4,0-2.8,0.3-4,0.8s-1.8,1.5-1.8,2.9
			c0,1.3,0.7,2.3,2,2.8c1.3,0.6,3.5,1.2,6.5,1.9c1.8,0.4,3.5,0.9,5.3,1.6s3.4,1.6,4.8,2.7c1.4,1.1,2.6,2.5,3.5,4.1
			c0.9,1.6,1.3,3.6,1.3,5.8c0,2.9-0.6,5.4-1.8,7.5c-1.2,2-2.7,3.7-4.7,4.9c-1.9,1.3-4.1,2.2-6.4,2.7c-2.4,0.6-4.8,0.8-7.1,0.8
			c-3.8,0-7.6-0.6-11.2-1.8c-3.7-1.2-6.7-3-9.2-5.4l8.7-9.1c1.4,1.5,3.1,2.8,5.1,3.8c2,1,4.1,1.5,6.4,1.5c1.3,0,2.5-0.3,3.7-0.9
			s1.8-1.6,1.8-3.2c0-1.4-0.8-2.5-2.3-3.2c-1.5-0.7-3.9-1.4-7.1-2.2c-1.6-0.4-3.3-0.9-4.9-1.5s-3.1-1.5-4.4-2.5
			c-1.3-1.1-2.3-2.4-3.2-4c-0.8-1.6-1.2-3.4-1.2-5.6c0-2.8,0.6-5.2,1.8-7.2c1.2-2,2.7-3.6,4.6-4.8c1.9-1.3,4-2.2,6.3-2.8
			c2.3-0.6,4.6-0.9,6.8-0.9c3.5,0,6.9,0.6,10.3,1.6c3.4,1.1,6.2,2.7,8.5,4.9L327.5,185.2z"/>
		<path class="st6" d="M389.4,195.4c0,0.6,0,1.3,0,1.9c0,0.6,0,1.2-0.1,1.8h-34c0.1,1.3,0.5,2.5,1.2,3.6c0.7,1.1,1.5,2,2.5,2.8
			c1,0.8,2.2,1.4,3.5,1.8c1.3,0.4,2.6,0.7,4,0.7c2.4,0,4.5-0.5,6.2-1.4s3.1-2.1,4.1-3.5l10.7,6.8c-2.2,3.2-5.1,5.7-8.7,7.4
			c-3.6,1.7-7.8,2.6-12.6,2.6c-3.5,0-6.8-0.6-10-1.6c-3.1-1.1-5.9-2.7-8.2-4.8c-2.4-2.1-4.2-4.7-5.5-7.8c-1.3-3.1-2-6.6-2-10.5
			c0-3.8,0.7-7.3,2-10.4c1.3-3.1,3.1-5.7,5.4-7.9c2.3-2.2,4.9-3.8,8-5c3.1-1.2,6.4-1.8,10-1.8c3.4,0,6.6,0.6,9.5,1.7
			c2.9,1.2,5.4,2.8,7.4,5c2.1,2.2,3.7,4.9,4.8,8C388.8,187.8,389.4,191.4,389.4,195.4z M375.2,189.5c0-2.4-0.8-4.5-2.3-6.3
			c-1.5-1.8-3.8-2.6-6.9-2.6c-1.5,0-2.9,0.2-4.1,0.7c-1.3,0.5-2.4,1.1-3.3,1.9c-0.9,0.8-1.7,1.8-2.3,2.9c-0.6,1.1-0.9,2.2-0.9,3.4
			H375.2z"/>
		<path class="st7" d="M393.4,214c0-1.3,0.5-2.4,1.4-3.3c0.9-0.9,2.1-1.4,3.4-1.4c1.3,0,2.4,0.4,3.4,1.3c1,0.9,1.4,2,1.4,3.2
			s-0.5,2.4-1.4,3.3c-0.9,0.9-2.1,1.4-3.4,1.4c-0.6,0-1.2-0.1-1.8-0.4s-1.1-0.6-1.5-1c-0.4-0.4-0.8-0.9-1.1-1.4
			C393.6,215.3,393.4,214.7,393.4,214z"/>
		<path class="st7" d="M417.1,172.9v20.2h0.2c0.4-0.5,0.8-1,1.4-1.5c0.6-0.5,1.2-1,2-1.4c0.8-0.4,1.7-0.8,2.7-1.1
			c1-0.3,2.2-0.5,3.5-0.5c2,0,3.9,0.4,5.6,1.2c1.7,0.8,3.2,1.9,4.4,3.2c1.2,1.4,2.2,3,2.9,4.8c0.7,1.8,1,3.8,1,5.9
			c0,2.1-0.3,4.1-1,6c-0.7,1.9-1.6,3.5-2.8,4.9s-2.7,2.5-4.4,3.3s-3.7,1.2-5.9,1.2c-2,0-4-0.4-5.7-1.3s-3.2-2.2-4.2-3.8h-0.1v4.3
			h-6.8v-45.4L417.1,172.9L417.1,172.9z M433.6,203.7c0-1.1-0.2-2.2-0.5-3.3c-0.3-1.1-0.9-2.1-1.5-3s-1.5-1.6-2.6-2.1
			c-1-0.5-2.3-0.8-3.7-0.8c-1.3,0-2.5,0.3-3.5,0.8c-1,0.6-1.9,1.3-2.7,2.2c-0.7,0.9-1.3,1.9-1.7,3c-0.4,1.1-0.6,2.2-0.6,3.4
			s0.2,2.2,0.6,3.3c0.4,1.1,0.9,2.1,1.7,3c0.7,0.9,1.6,1.6,2.7,2.1c1,0.5,2.2,0.8,3.5,0.8c1.4,0,2.6-0.3,3.7-0.8
			c1-0.6,1.9-1.3,2.6-2.2c0.7-0.9,1.2-1.9,1.5-3C433.4,206,433.6,204.8,433.6,203.7z"/>
		<path class="st7" d="M445.5,203.7c0-2.3,0.4-4.3,1.2-6.2c0.8-1.9,1.9-3.5,3.3-4.8c1.4-1.3,3.1-2.3,5-3.1s4-1.1,6.1-1.1
			s4.2,0.4,6.1,1.1s3.6,1.7,5,3.1c1.4,1.3,2.5,2.9,3.3,4.8s1.2,3.9,1.2,6.2s-0.4,4.4-1.2,6.2c-0.8,1.9-1.9,3.5-3.3,4.8
			s-3.1,2.4-5,3.2c-1.9,0.8-4,1.1-6.1,1.1s-4.2-0.4-6.1-1.1c-1.9-0.8-3.6-1.8-5-3.2c-1.4-1.3-2.5-2.9-3.3-4.8
			C445.9,208.1,445.5,206,445.5,203.7z M452.8,203.7c0,1.1,0.2,2.2,0.5,3.4c0.3,1.1,0.8,2.1,1.5,3c0.7,0.9,1.5,1.6,2.6,2.2
			c1,0.6,2.3,0.8,3.7,0.8s2.7-0.3,3.7-0.8c1-0.6,1.9-1.3,2.6-2.2c0.7-0.9,1.2-1.9,1.5-3c0.3-1.1,0.5-2.2,0.5-3.4
			c0-1.1-0.2-2.2-0.5-3.3c-0.3-1.1-0.9-2.1-1.5-3s-1.5-1.6-2.6-2.1c-1-0.5-2.3-0.8-3.7-0.8s-2.7,0.3-3.7,0.8c-1,0.5-1.9,1.2-2.6,2.1
			s-1.2,1.9-1.5,3C453,201.5,452.8,202.6,452.8,203.7z"/>
		<path class="st7" d="M479,195.2v-5.8h5v-8.3h7.1v8.3h7.2v5.8h-7.2v13.4c0,1.3,0.2,2.3,0.7,3.2c0.5,0.8,1.5,1.3,3.1,1.3
			c0.5,0,1,0,1.6-0.1s1.1-0.2,1.5-0.5l0.2,5.6c-0.6,0.2-1.4,0.4-2.3,0.6c-0.9,0.1-1.7,0.2-2.5,0.2c-1.9,0-3.5-0.3-4.7-0.8
			c-1.2-0.5-2.2-1.3-2.9-2.2c-0.7-0.9-1.2-2-1.4-3.2c-0.3-1.2-0.4-2.5-0.4-3.9v-13.4L479,195.2L479,195.2z"/>
	</g>
</g>
</svg>
